<svg width="47" height="47" viewBox="0 0 47 47" fill="none" xmlns="http://www.w3.org/2000/svg">
<path d="M45.5113 39.9488L34.3859 30.492C33.2352 29.4562 32.0052 28.9838 31.0131 29.0278C33.6403 25.9528 35.2254 21.9653 35.2254 17.6051C35.2254 7.8812 27.3408 0 17.6127 0C7.88463 0 0 7.8812 0 17.6051C0 27.3289 7.88463 35.2101 17.6127 35.2101C21.9748 35.2101 25.9641 33.6257 29.0404 30.9996C28.9935 31.9914 29.469 33.2208 30.5052 34.371L39.9662 45.4915C41.5866 47.2902 44.2314 47.4427 45.8459 45.8289C47.4604 44.2151 47.3078 41.5685 45.5083 39.9518L45.5113 39.9488ZM17.6127 29.3389C11.1283 29.3389 5.87091 24.0837 5.87091 17.6021C5.87091 11.1205 11.1283 5.86542 17.6127 5.86542C24.0971 5.86542 29.3545 11.1205 29.3545 17.6021C29.3545 24.0837 24.0971 29.3389 17.6127 29.3389Z" fill="#D4D4D4"/>
</svg>
